<svg width="48" height="48" viewBox="0 0 48 48" fill="none" xmlns="http://www.w3.org/2000/svg">
<path d="M36 29.3333V18.6667C35.9995 18.199 35.8761 17.7397 35.6421 17.3349C35.408 16.93 35.0717 16.5938 34.6667 16.36L25.3333 11.0267C24.9279 10.7926 24.4681 10.6694 24 10.6694C23.5319 10.6694 23.0721 10.7926 22.6667 11.0267L13.3333 16.36C12.9284 16.5938 12.592 16.93 12.3579 17.3349C12.1239 17.7397 12.0005 18.199 12 18.6667V29.3333C12.0005 29.801 12.1239 30.2603 12.3579 30.6651C12.592 31.07 12.9284 31.4062 13.3333 31.64L22.6667 36.9733C23.0721 37.2074 23.5319 37.3306 24 37.3306C24.4681 37.3306 24.9279 37.2074 25.3333 36.9733L34.6667 31.64C35.0717 31.4062 35.408 31.07 35.6421 30.6651C35.8761 30.2603 35.9995 29.801 36 29.3333Z" fill="#09090B" stroke="#09090B" stroke-width="2" stroke-linecap="round" stroke-linejoin="round"/>
</svg>
